<?xml version="1.0" standalone="no"?>
<svg xmlns:xlink="http://www.w3.org/1999/xlink" id="wave" style="transform:rotate(180deg); transition: 0.3s" viewBox="0 0 1440 140" version="1.1" xmlns="http://www.w3.org/2000/svg"><defs><linearGradient id="sw-gradient-0" x1="0" x2="0" y1="1" y2="0"><stop stop-color="rgba(251, 223, 22, 1)" offset="0%"/><stop stop-color="rgba(255, 179, 11, 1)" offset="100%"/></linearGradient></defs><path style="transform:translate(0, 0px); opacity:1" fill="url(#sw-gradient-0)" d="M0,14L40,25.7C80,37,160,61,240,72.3C320,84,400,84,480,81.7C560,79,640,75,720,77C800,79,880,89,960,98C1040,107,1120,117,1200,112C1280,107,1360,89,1440,74.7C1520,61,1600,51,1680,39.7C1760,28,1840,14,1920,16.3C2000,19,2080,37,2160,53.7C2240,70,2320,84,2400,74.7C2480,65,2560,33,2640,32.7C2720,33,2800,65,2880,81.7C2960,98,3040,98,3120,95.7C3200,93,3280,89,3360,86.3C3440,84,3520,84,3600,74.7C3680,65,3760,47,3840,49C3920,51,4000,75,4080,86.3C4160,98,4240,98,4320,81.7C4400,65,4480,33,4560,18.7C4640,5,4720,9,4800,23.3C4880,37,4960,61,5040,67.7C5120,75,5200,65,5280,51.3C5360,37,5440,19,5520,21C5600,23,5680,47,5720,58.3L5760,70L5760,140L5720,140C5680,140,5600,140,5520,140C5440,140,5360,140,5280,140C5200,140,5120,140,5040,140C4960,140,4880,140,4800,140C4720,140,4640,140,4560,140C4480,140,4400,140,4320,140C4240,140,4160,140,4080,140C4000,140,3920,140,3840,140C3760,140,3680,140,3600,140C3520,140,3440,140,3360,140C3280,140,3200,140,3120,140C3040,140,2960,140,2880,140C2800,140,2720,140,2640,140C2560,140,2480,140,2400,140C2320,140,2240,140,2160,140C2080,140,2000,140,1920,140C1840,140,1760,140,1680,140C1600,140,1520,140,1440,140C1360,140,1280,140,1200,140C1120,140,1040,140,960,140C880,140,800,140,720,140C640,140,560,140,480,140C400,140,320,140,240,140C160,140,80,140,40,140L0,140Z"/><defs><linearGradient id="sw-gradient-1" x1="0" x2="0" y1="1" y2="0"><stop stop-color="rgba(115, 54, 70, 1)" offset="0%"/><stop stop-color="rgba(115, 54, 70, 1)" offset="100%"/></linearGradient></defs><path style="transform:translate(0, 50px); opacity:0.9" fill="url(#sw-gradient-1)" d="M0,56L40,63C80,70,160,84,240,77C320,70,400,42,480,32.7C560,23,640,33,720,39.7C800,47,880,51,960,46.7C1040,42,1120,28,1200,32.7C1280,37,1360,61,1440,65.3C1520,70,1600,56,1680,60.7C1760,65,1840,89,1920,93.3C2000,98,2080,84,2160,84C2240,84,2320,98,2400,98C2480,98,2560,84,2640,70C2720,56,2800,42,2880,39.7C2960,37,3040,47,3120,58.3C3200,70,3280,84,3360,84C3440,84,3520,70,3600,67.7C3680,65,3760,75,3840,84C3920,93,4000,103,4080,107.3C4160,112,4240,112,4320,100.3C4400,89,4480,65,4560,63C4640,61,4720,79,4800,84C4880,89,4960,79,5040,79.3C5120,79,5200,89,5280,77C5360,65,5440,33,5520,25.7C5600,19,5680,37,5720,46.7L5760,56L5760,140L5720,140C5680,140,5600,140,5520,140C5440,140,5360,140,5280,140C5200,140,5120,140,5040,140C4960,140,4880,140,4800,140C4720,140,4640,140,4560,140C4480,140,4400,140,4320,140C4240,140,4160,140,4080,140C4000,140,3920,140,3840,140C3760,140,3680,140,3600,140C3520,140,3440,140,3360,140C3280,140,3200,140,3120,140C3040,140,2960,140,2880,140C2800,140,2720,140,2640,140C2560,140,2480,140,2400,140C2320,140,2240,140,2160,140C2080,140,2000,140,1920,140C1840,140,1760,140,1680,140C1600,140,1520,140,1440,140C1360,140,1280,140,1200,140C1120,140,1040,140,960,140C880,140,800,140,720,140C640,140,560,140,480,140C400,140,320,140,240,140C160,140,80,140,40,140L0,140Z"/></svg>