<?xml version="1.0" standalone="no"?>
<svg xmlns:xlink="http://www.w3.org/1999/xlink" id="wave" style="transform:rotate(0deg); transition: 0.3s" viewBox="0 0 1440 140" version="1.1" xmlns="http://www.w3.org/2000/svg"><defs><linearGradient id="sw-gradient-0" x1="0" x2="0" y1="1" y2="0"><stop stop-color="rgba(251, 223, 22, 1)" offset="0%"/><stop stop-color="rgba(255, 179, 11, 1)" offset="100%"/></linearGradient></defs><path style="transform:translate(0, 0px); opacity:1" fill="url(#sw-gradient-0)" d="M0,70L40,74.7C80,79,160,89,240,91C320,93,400,89,480,77C560,65,640,47,720,37.3C800,28,880,28,960,39.7C1040,51,1120,75,1200,86.3C1280,98,1360,98,1440,88.7C1520,79,1600,61,1680,63C1760,65,1840,89,1920,88.7C2000,89,2080,65,2160,65.3C2240,65,2320,89,2400,81.7C2480,75,2560,37,2640,37.3C2720,37,2800,75,2880,81.7C2960,89,3040,65,3120,67.7C3200,70,3280,98,3360,98C3440,98,3520,70,3600,51.3C3680,33,3760,23,3840,32.7C3920,42,4000,70,4080,79.3C4160,89,4240,79,4320,81.7C4400,84,4480,98,4560,93.3C4640,89,4720,65,4800,53.7C4880,42,4960,42,5040,49C5120,56,5200,70,5280,81.7C5360,93,5440,103,5520,105C5600,107,5680,103,5720,100.3L5760,98L5760,140L5720,140C5680,140,5600,140,5520,140C5440,140,5360,140,5280,140C5200,140,5120,140,5040,140C4960,140,4880,140,4800,140C4720,140,4640,140,4560,140C4480,140,4400,140,4320,140C4240,140,4160,140,4080,140C4000,140,3920,140,3840,140C3760,140,3680,140,3600,140C3520,140,3440,140,3360,140C3280,140,3200,140,3120,140C3040,140,2960,140,2880,140C2800,140,2720,140,2640,140C2560,140,2480,140,2400,140C2320,140,2240,140,2160,140C2080,140,2000,140,1920,140C1840,140,1760,140,1680,140C1600,140,1520,140,1440,140C1360,140,1280,140,1200,140C1120,140,1040,140,960,140C880,140,800,140,720,140C640,140,560,140,480,140C400,140,320,140,240,140C160,140,80,140,40,140L0,140Z"/><defs><linearGradient id="sw-gradient-1" x1="0" x2="0" y1="1" y2="0"><stop stop-color="rgba(115, 54, 70, 1)" offset="0%"/><stop stop-color="rgba(115, 54, 70, 1)" offset="100%"/></linearGradient></defs><path style="transform:translate(0, 50px); opacity:0.9" fill="url(#sw-gradient-1)" d="M0,56L40,63C80,70,160,84,240,74.7C320,65,400,33,480,30.3C560,28,640,56,720,67.7C800,79,880,75,960,63C1040,51,1120,33,1200,21C1280,9,1360,5,1440,9.3C1520,14,1600,28,1680,32.7C1760,37,1840,33,1920,39.7C2000,47,2080,65,2160,81.7C2240,98,2320,112,2400,109.7C2480,107,2560,89,2640,70C2720,51,2800,33,2880,28C2960,23,3040,33,3120,30.3C3200,28,3280,14,3360,16.3C3440,19,3520,37,3600,51.3C3680,65,3760,75,3840,81.7C3920,89,4000,93,4080,91C4160,89,4240,79,4320,65.3C4400,51,4480,33,4560,25.7C4640,19,4720,23,4800,37.3C4880,51,4960,75,5040,79.3C5120,84,5200,70,5280,67.7C5360,65,5440,75,5520,77C5600,79,5680,75,5720,72.3L5760,70L5760,140L5720,140C5680,140,5600,140,5520,140C5440,140,5360,140,5280,140C5200,140,5120,140,5040,140C4960,140,4880,140,4800,140C4720,140,4640,140,4560,140C4480,140,4400,140,4320,140C4240,140,4160,140,4080,140C4000,140,3920,140,3840,140C3760,140,3680,140,3600,140C3520,140,3440,140,3360,140C3280,140,3200,140,3120,140C3040,140,2960,140,2880,140C2800,140,2720,140,2640,140C2560,140,2480,140,2400,140C2320,140,2240,140,2160,140C2080,140,2000,140,1920,140C1840,140,1760,140,1680,140C1600,140,1520,140,1440,140C1360,140,1280,140,1200,140C1120,140,1040,140,960,140C880,140,800,140,720,140C640,140,560,140,480,140C400,140,320,140,240,140C160,140,80,140,40,140L0,140Z"/></svg>