<?xml version="1.0" standalone="no"?>
<svg xmlns:xlink="http://www.w3.org/1999/xlink" id="wave" style="transform:rotate(0deg); transition: 0.3s" viewBox="0 0 1440 140" version="1.1" xmlns="http://www.w3.org/2000/svg"><defs><linearGradient id="sw-gradient-0" x1="0" x2="0" y1="1" y2="0"><stop stop-color="rgba(251, 223, 22, 1)" offset="0%"/><stop stop-color="rgba(255, 179, 11, 1)" offset="100%"/></linearGradient></defs><path style="transform:translate(0, 0px); opacity:1" fill="url(#sw-gradient-0)" d="M0,84L80,77C160,70,320,56,480,53.7C640,51,800,61,960,60.7C1120,61,1280,51,1440,60.7C1600,70,1760,98,1920,91C2080,84,2240,42,2400,28C2560,14,2720,28,2880,42C3040,56,3200,70,3360,77C3520,84,3680,84,3840,81.7C4000,79,4160,75,4320,72.3C4480,70,4640,70,4800,65.3C4960,61,5120,51,5280,53.7C5440,56,5600,70,5760,84C5920,98,6080,112,6240,116.7C6400,121,6560,117,6720,98C6880,79,7040,47,7200,32.7C7360,19,7520,23,7680,21C7840,19,8000,9,8160,4.7C8320,0,8480,0,8640,21C8800,42,8960,84,9120,84C9280,84,9440,42,9600,37.3C9760,33,9920,65,10080,86.3C10240,107,10400,117,10560,116.7C10720,117,10880,107,11040,86.3C11200,65,11360,33,11440,16.3L11520,0L11520,140L11440,140C11360,140,11200,140,11040,140C10880,140,10720,140,10560,140C10400,140,10240,140,10080,140C9920,140,9760,140,9600,140C9440,140,9280,140,9120,140C8960,140,8800,140,8640,140C8480,140,8320,140,8160,140C8000,140,7840,140,7680,140C7520,140,7360,140,7200,140C7040,140,6880,140,6720,140C6560,140,6400,140,6240,140C6080,140,5920,140,5760,140C5600,140,5440,140,5280,140C5120,140,4960,140,4800,140C4640,140,4480,140,4320,140C4160,140,4000,140,3840,140C3680,140,3520,140,3360,140C3200,140,3040,140,2880,140C2720,140,2560,140,2400,140C2240,140,2080,140,1920,140C1760,140,1600,140,1440,140C1280,140,1120,140,960,140C800,140,640,140,480,140C320,140,160,140,80,140L0,140Z"/><defs><linearGradient id="sw-gradient-1" x1="0" x2="0" y1="1" y2="0"><stop stop-color="rgba(115, 54, 70, 1)" offset="0%"/><stop stop-color="rgba(115, 54, 70, 1)" offset="100%"/></linearGradient></defs><path style="transform:translate(0, 50px); opacity:0.9" fill="url(#sw-gradient-1)" d="M0,70L80,65.3C160,61,320,51,480,44.3C640,37,800,33,960,37.3C1120,42,1280,56,1440,63C1600,70,1760,70,1920,77C2080,84,2240,98,2400,88.7C2560,79,2720,47,2880,42C3040,37,3200,61,3360,67.7C3520,75,3680,65,3840,63C4000,61,4160,65,4320,72.3C4480,79,4640,89,4800,81.7C4960,75,5120,51,5280,53.7C5440,56,5600,84,5760,93.3C5920,103,6080,93,6240,91C6400,89,6560,93,6720,86.3C6880,79,7040,61,7200,49C7360,37,7520,33,7680,32.7C7840,33,8000,37,8160,39.7C8320,42,8480,42,8640,46.7C8800,51,8960,61,9120,72.3C9280,84,9440,98,9600,91C9760,84,9920,56,10080,51.3C10240,47,10400,65,10560,60.7C10720,56,10880,28,11040,25.7C11200,23,11360,47,11440,58.3L11520,70L11520,140L11440,140C11360,140,11200,140,11040,140C10880,140,10720,140,10560,140C10400,140,10240,140,10080,140C9920,140,9760,140,9600,140C9440,140,9280,140,9120,140C8960,140,8800,140,8640,140C8480,140,8320,140,8160,140C8000,140,7840,140,7680,140C7520,140,7360,140,7200,140C7040,140,6880,140,6720,140C6560,140,6400,140,6240,140C6080,140,5920,140,5760,140C5600,140,5440,140,5280,140C5120,140,4960,140,4800,140C4640,140,4480,140,4320,140C4160,140,4000,140,3840,140C3680,140,3520,140,3360,140C3200,140,3040,140,2880,140C2720,140,2560,140,2400,140C2240,140,2080,140,1920,140C1760,140,1600,140,1440,140C1280,140,1120,140,960,140C800,140,640,140,480,140C320,140,160,140,80,140L0,140Z"/></svg>