<?xml version="1.0" standalone="no"?>
<svg xmlns:xlink="http://www.w3.org/1999/xlink" id="wave" style="transform:rotate(0deg); transition: 0.3s" viewBox="0 0 1440 140" version="1.1" xmlns="http://www.w3.org/2000/svg"><defs><linearGradient id="sw-gradient-0" x1="0" x2="0" y1="1" y2="0"><stop stop-color="rgba(251, 223, 22, 1)" offset="0%"/><stop stop-color="rgba(255, 179, 11, 1)" offset="100%"/></linearGradient></defs><path style="transform:translate(0, 0px); opacity:1" fill="url(#sw-gradient-0)" d="M0,42L80,53.7C160,65,320,89,480,100.3C640,112,800,112,960,112C1120,112,1280,112,1440,114.3C1600,117,1760,121,1920,116.7C2080,112,2240,98,2400,93.3C2560,89,2720,93,2880,100.3C3040,107,3200,117,3360,121.3C3520,126,3680,126,3840,123.7C4000,121,4160,117,4320,95.7C4480,75,4640,37,4800,18.7C4960,0,5120,0,5280,4.7C5440,9,5600,19,5760,32.7C5920,47,6080,65,6240,77C6400,89,6560,93,6720,84C6880,75,7040,51,7200,53.7C7360,56,7520,84,7680,95.7C7840,107,8000,103,8160,105C8320,107,8480,117,8640,114.3C8800,112,8960,98,9120,95.7C9280,93,9440,103,9600,100.3C9760,98,9920,84,10080,74.7C10240,65,10400,61,10560,63C10720,65,10880,75,11040,84C11200,93,11360,103,11440,107.3L11520,112L11520,140L11440,140C11360,140,11200,140,11040,140C10880,140,10720,140,10560,140C10400,140,10240,140,10080,140C9920,140,9760,140,9600,140C9440,140,9280,140,9120,140C8960,140,8800,140,8640,140C8480,140,8320,140,8160,140C8000,140,7840,140,7680,140C7520,140,7360,140,7200,140C7040,140,6880,140,6720,140C6560,140,6400,140,6240,140C6080,140,5920,140,5760,140C5600,140,5440,140,5280,140C5120,140,4960,140,4800,140C4640,140,4480,140,4320,140C4160,140,4000,140,3840,140C3680,140,3520,140,3360,140C3200,140,3040,140,2880,140C2720,140,2560,140,2400,140C2240,140,2080,140,1920,140C1760,140,1600,140,1440,140C1280,140,1120,140,960,140C800,140,640,140,480,140C320,140,160,140,80,140L0,140Z"/><defs><linearGradient id="sw-gradient-1" x1="0" x2="0" y1="1" y2="0"><stop stop-color="rgba(115, 54, 70, 1)" offset="0%"/><stop stop-color="rgba(115, 54, 70, 1)" offset="100%"/></linearGradient></defs><path style="transform:translate(0, 50px); opacity:0.9" fill="url(#sw-gradient-1)" d="M0,70L80,77C160,84,320,98,480,95.7C640,93,800,75,960,56C1120,37,1280,19,1440,18.7C1600,19,1760,37,1920,46.7C2080,56,2240,56,2400,51.3C2560,47,2720,37,2880,42C3040,47,3200,65,3360,65.3C3520,65,3680,47,3840,49C4000,51,4160,75,4320,88.7C4480,103,4640,107,4800,102.7C4960,98,5120,84,5280,79.3C5440,75,5600,79,5760,81.7C5920,84,6080,84,6240,72.3C6400,61,6560,37,6720,42C6880,47,7040,79,7200,93.3C7360,107,7520,103,7680,88.7C7840,75,8000,51,8160,53.7C8320,56,8480,84,8640,95.7C8800,107,8960,103,9120,93.3C9280,84,9440,70,9600,74.7C9760,79,9920,103,10080,102.7C10240,103,10400,79,10560,79.3C10720,79,10880,103,11040,105C11200,107,11360,89,11440,79.3L11520,70L11520,140L11440,140C11360,140,11200,140,11040,140C10880,140,10720,140,10560,140C10400,140,10240,140,10080,140C9920,140,9760,140,9600,140C9440,140,9280,140,9120,140C8960,140,8800,140,8640,140C8480,140,8320,140,8160,140C8000,140,7840,140,7680,140C7520,140,7360,140,7200,140C7040,140,6880,140,6720,140C6560,140,6400,140,6240,140C6080,140,5920,140,5760,140C5600,140,5440,140,5280,140C5120,140,4960,140,4800,140C4640,140,4480,140,4320,140C4160,140,4000,140,3840,140C3680,140,3520,140,3360,140C3200,140,3040,140,2880,140C2720,140,2560,140,2400,140C2240,140,2080,140,1920,140C1760,140,1600,140,1440,140C1280,140,1120,140,960,140C800,140,640,140,480,140C320,140,160,140,80,140L0,140Z"/></svg>